# xmcd
#
# Track frame offsets:
#	182
#	21677
#	36417
#	49447
#	64027
#	82100
#	95835
#	105377
#	121862
#	143392
#	163240
#	181997
#	200775
#	211940
#	231097
#
# Disc length: 3258 seconds
#
# Revision: 0
# Processed by: cddbd v1.5PL3 Copyright (c) Steve Scherf et al.
# Submitted via: audiograbber 1.82.02
#
DISCID=dd0cb80f
DTITLE=Novi Zelenaci Mirka Hoffmanna - I See America
DYEAR=1992
DGENRE=
TTITLE0=I See America
TTITLE1=Down By The Riverside
TTITLE2=Orange Blossom Special
TTITLE3=Battle Hymn Of The Republic
TTITLE4=Precious Memories
TTITLE5=Oh Susanah
TTITLE6=Cottonfields
TTITLE7=Good Night Irene
TTITLE8=American Medley
TTITLE9=Red River Valley
TTITLE10=Sloop John B.
TTITLE11=On Top Of Old Smokey
TTITLE12=Rolling In My Sweet Baby´s Arms
TTITLE13=Clementine
TTITLE14=Roll Out The Barrels
EXTD=
EXTT0=
EXTT1=
EXTT2=
EXTT3=
EXTT4=
EXTT5=
EXTT6=
EXTT7=
EXTT8=
EXTT9=
EXTT10=
EXTT11=
EXTT12=
EXTT13=
EXTT14=
PLAYORDER=
